<svg id="eYQafdsl0BI1" xmlns="http://www.w3.org/2000/svg" xmlns:xlink="http://www.w3.org/1999/xlink" viewBox="0 0 368 368" shape-rendering="geometricPrecision" text-rendering="geometricPrecision" project-id="97f382664fab413784a93da6ac91d0a5" export-id="8a81c75cda1b4169aefcbc47ef37109c" cached="false"><rect width="368" height="368" rx="0" ry="0" fill="#020202" stroke-width="0"/><g transform="translate(.000001 0)"><ellipse rx="95.252108" ry="95.252108" transform="matrix(1.084921 0 0 0.99297 184 176.81195)" fill="#fff" stroke-width="0"/><path d="M147.351875,295.826305h73.29625l-25.09241-65.37233-33.016329,30.375022-15.187511,34.997308Z" fill="#fff" stroke-width="0.736"/><path d="M93.401442,133.124532q-18.133648,3.980557-22.77763,6.191977c-4.643982,2.21142-3.980556,1.326851-4.42284,7.961112q-.442284,6.634261,0,37.722377-.884569,9.380876,4.42284,10.486586t22.77763,6.855403v-69.217455Z" transform="translate(0 0.000002)" fill="#fff" stroke-width="0.736"/><path d="M93.401442,133.124532q-18.133648,3.980557-22.77763,6.191977c-4.643982,2.21142-3.980556,1.326851-4.42284,7.961112q-.442284,6.634261,0,37.722377-.884569,9.380876,4.42284,10.486586t22.77763,6.855403v-69.217455Z" transform="matrix(-1 0 0 1 367.041653 0.000002)" fill="#fff" stroke-width="0.736"/><path d="M81.415512,136.444654l-8.609894-25.829683l4.352254-1.419214l9.082966,28.573495-4.825326-1.324598Z" transform="translate(0 0.000003)" fill="#fff" stroke-width="0.736"/><g transform="matrix(-1 0 0 1 366.835942-.000003)"><path d="M81.415512,136.444654l-8.609894-25.829683l4.352254-1.419214l9.082966,28.573495-4.825326-1.324598Z" transform="translate(0 0.000003)" fill="#fff" stroke-width="0.736"/><ellipse rx="5.387103" ry="5.387103" transform="translate(74.136125 107.770637)" fill="#fff" stroke-width="0"/></g><ellipse rx="5.387103" ry="5.387103" transform="translate(74.136125 107.770637)" fill="#fff" stroke-width="0"/><path d="M161.018387,212.37203q-.900779.128682-8.107012,0Q158.854257,235.277562,184,235.277562c25.145743,0,30.164369-22.004752,30.164369-22.004752q0,0-9.136476-.128683-24.449726,23.034214-44.009506-.772097Z" transform="translate(.000002 0)" stroke-width="0.736"/><path d="M116.470325,138.985514q-14.561552,5.180552-14.841582,18.341955c-.28003,13.161403,2.672595,26.432226,17.928066,27.91768q15.255471,1.485454,56.026381,3.629878q11.678738-.000001,27.93428-.789105t47.504057-3.156417q14.203873-1.262567,16.571184-19.411958c2.367311-18.149391-3.62988-22.410554-17.360288-27.460819s-33.142367-13.256946-64.075242-14.203871q-30.932875-.946925-69.686856,15.132657Z" transform="translate(.000005 0.000005)" stroke-width="0.736"/><ellipse rx="15.979355" ry="15.979355" transform="translate(145.005412 161.138024)" fill="#30ff00" stroke-width="0"/><ellipse rx="15.979355" ry="15.979355" transform="translate(220.648125 161.138024)" fill="#30ff00" stroke-width="0"/></g></svg>
